<svg xmlns="http://www.w3.org/2000/svg" viewBox="0 0 512 512">
  <defs>
    <linearGradient id="sky" x1="0" y1="0" x2="0" y2="1">
      <stop offset="0" stop-color="#2b2f6b"/><stop offset="1" stop-color="#7a4ea3"/>
    </linearGradient>
  </defs>
  <rect width="512" height="512" rx="96" fill="url(#sky)"/>
  <g>
    <rect x="146" y="220" width="220" height="160" fill="#e8e3f2"/>
    <rect x="146" y="204" width="220" height="20" fill="#b9aed1"/>
    <rect x="150" y="188" width="28" height="18" fill="#b9aed1"/><rect x="206" y="188" width="28" height="18" fill="#b9aed1"/>
    <rect x="262" y="188" width="28" height="18" fill="#b9aed1"/><rect x="318" y="188" width="28" height="18" fill="#b9aed1"/>
    <path d="M224 380 L224 312 Q256 284 288 312 L288 380 Z" fill="#5b4a86"/>
    <rect x="96" y="240" width="56" height="140" fill="#cfc3e6"/>
    <path d="M88 240 L124 180 L160 240 Z" fill="#7a5aa8"/>
    <rect x="360" y="240" width="56" height="140" fill="#cfc3e6"/>
    <path d="M352 240 L388 180 L424 240 Z" fill="#7a5aa8"/>
    <rect x="252" y="120" width="8" height="70" fill="#cfc3e6"/>
    <path d="M260 122 L260 96 L308 109 Z" fill="#f6b93b"/>
    <rect x="120" y="380" width="272" height="36" rx="10" fill="#3e7d54"/>
  </g>
</svg>
